<svg xmlns="http://www.w3.org/2000/svg" viewBox="0 0 256 256" role="img" aria-labelledby="title desc">
  <title id="title">Tree-ring avatar frame</title>
  <desc id="desc">Circular avatar frame with tree-ring and firefly accents.</desc>
  <defs>
    <filter id="glow" x="-30%" y="-30%" width="160%" height="160%">
      <feGaussianBlur stdDeviation="2.5" result="b"/>
      <feMerge>
        <feMergeNode in="b"/>
        <feMergeNode in="SourceGraphic"/>
      </feMerge>
    </filter>
  </defs>
  <circle cx="128" cy="128" r="116" fill="none" stroke="#4a321d" stroke-width="13"/>
  <circle cx="128" cy="128" r="111" fill="none" stroke="#c0a35d" stroke-width="2.5"/>
  <circle cx="128" cy="128" r="96" fill="none" stroke="#9f8243" stroke-width="1.5" stroke-dasharray="3 7" opacity=".8"/>
  <g fill="none" stroke="#9f8243" stroke-width="2" opacity=".68">
    <path d="M54 130c15-54 70-75 112-42 39 31 27 94-19 111-41 15-86-19-78-63 7-38 49-57 83-38 33 18 39 65 10 90-25 21-66 10-75-21-8-27 14-54 43-51 25 3 41 29 31 52-9 21-38 26-52 9-13-16-4-41 17-44 17-2 32 13 27 30"/>
    <path d="M42 105c33-5 57 1 83 14 25 12 49 15 90 6"/>
    <path d="M89 33c-3 31 11 55 34 79 23 25 35 49 33 84"/>
    <path d="M193 58c-30 10-52 28-70 54-19 27-40 45-76 54"/>
  </g>
  <g fill="#9cf0bd" filter="url(#glow)">
    <circle cx="203" cy="75" r="3"/>
    <circle cx="49" cy="174" r="2.5"/>
    <circle cx="184" cy="198" r="2"/>
  </g>
</svg>
