<svg xmlns="http://www.w3.org/2000/svg" width="240" height="240" viewBox="0 0 240 240" fill="none">
  <defs>
    <radialGradient id="wood" cx="0" cy="0" r="1" gradientUnits="userSpaceOnUse" gradientTransform="translate(120 120) rotate(90) scale(112)">
      <stop stop-color="#4A321D"/>
      <stop offset=".52" stop-color="#24180F"/>
      <stop offset="1" stop-color="#071714"/>
    </radialGradient>
    <filter id="glow" x="-25%" y="-25%" width="150%" height="150%">
      <feGaussianBlur stdDeviation="3" result="b"/>
      <feMerge><feMergeNode in="b"/><feMergeNode in="SourceGraphic"/></feMerge>
    </filter>
  </defs>
  <path d="M120 8a112 112 0 1 0 .1 0M120 42a78 78 0 1 1-.1 0" fill="url(#wood)" fill-rule="evenodd" stroke="#C0A35D" stroke-opacity=".72" stroke-width="2"/>
  <circle cx="120" cy="120" r="99" stroke="#E0CC88" stroke-opacity=".34"/>
  <circle cx="120" cy="120" r="86" stroke="#C0A35D" stroke-opacity=".26"/>
  <circle cx="120" cy="120" r="91" stroke="#9CF0BD" stroke-opacity=".22" stroke-dasharray="2 13"/>
  <path d="M27 120c18-7 32-8 49-5M164 111c17-4 31-4 49 2M39 156c13-8 25-11 39-12M166 142c14-1 26-4 40-10M43 88c13 7 25 10 39 11M160 100c16-5 29-4 45 2" stroke="#E0CC88" stroke-opacity=".18" stroke-linecap="round"/>
  <path d="M120 8v22M120 210v22M8 120h22M210 120h22M41 41l15 15M184 184l15 15M199 41l-15 15M56 184l-15 15" stroke="#C0A35D" stroke-opacity=".58" stroke-linecap="round"/>
  <circle cx="120" cy="20" r="4" fill="#9CF0BD" filter="url(#glow)"/>
  <circle cx="220" cy="120" r="3.5" fill="#9CF0BD" filter="url(#glow)"/>
  <circle cx="120" cy="220" r="4" fill="#9CF0BD" filter="url(#glow)"/>
  <circle cx="20" cy="120" r="3.5" fill="#9CF0BD" filter="url(#glow)"/>
  <circle cx="120" cy="120" r="78" stroke="#E8E2CF" stroke-opacity=".72" stroke-width="5"/>
</svg>
