<svg xmlns="http://www.w3.org/2000/svg" viewBox="0 0 96 96" role="img" aria-label="dark wood card corner">
  <path d="M10 86V28c0-10 8-18 18-18h58" fill="none" stroke="#4a321d" stroke-width="10" stroke-linecap="round"/>
  <path d="M14 82V30c0-9 7-16 16-16h52" fill="none" stroke="#c0a35d" stroke-width="2"/>
  <path d="M24 76V38c0-8 6-14 14-14h38" fill="none" stroke="#9f8243" stroke-width="1.5" opacity=".72"/>
  <path d="M50 16c-10 8-19 17-26 30M66 16c-17 11-29 25-38 44M82 16c-21 12-37 31-50 60" fill="none" stroke="#263d2d" stroke-width="2" opacity=".75"/>
  <path d="M18 66c7-4 15-5 23-1M19 76c8-2 14 0 19 4" fill="none" stroke="#5e8a67" stroke-width="2" stroke-linecap="round"/>
</svg>
